<svg width="676" height="226" viewBox="0 0 676 226" fill="none" xmlns="http://www.w3.org/2000/svg">
<path d="M1.46582 52.8857C1.31777 40.1675 0.716556 27.2584 8.80859 17.5498L8.8252 17.5303L8.83984 17.5107C21.0386 1.75278 42.5311 0.304261 61.8057 1.89062C63.7514 2.14006 64.9111 2.9134 65.6621 3.93066C66.4581 5.00877 66.9001 6.50449 67.0947 8.34277C67.2885 10.1726 67.2251 12.193 67.125 14.2344C67.0288 16.1971 66.8953 18.2294 66.9805 19.9443C66.845 26.3097 66.918 32.5549 66.8916 38.8525C66.75 43.5088 66.862 48.1915 67.0088 52.8457C67.1563 57.5245 67.3383 62.1633 67.3408 66.7793C67.3458 76.0059 66.6292 85.0057 63.5352 93.623C56.718 112.191 39.5217 126.271 19.9102 129.331C18.613 129.417 16.8446 129.674 15.0439 129.895C13.156 130.126 11.1461 130.331 9.26465 130.331C7.36242 130.331 5.72171 130.118 4.51367 129.604C3.38608 129.123 2.69599 128.414 2.42871 127.327C1.80161 122.562 1.73617 117.704 1.79785 112.765C1.85948 107.83 2.05057 102.762 1.91016 97.7607L1.9043 97.584L1.46582 52.9551V52.8857Z" fill="black" stroke="black" stroke-width="2.78351"/>
<path d="M5.7085 142.077C6.27128 142.077 7.21012 142.129 7.97998 142.091C12.6265 142.091 17.0858 142.088 21.8833 142.091L32.6011 142.105C58.8585 142.121 92.6104 142.016 102.271 142.143C105.118 142.34 109.046 143.073 111.989 144.046V144.047C120.858 147.151 129.31 152.714 134.76 160.261L135.279 160.997C141.136 169.604 143.629 179.34 141.862 189.567L141.858 189.591C140.623 197.559 136.197 204.404 130.661 210.381C120.489 221.354 107.734 223.866 92.8345 224.182H92.8149C84.031 224.486 74.849 224.406 66.3335 223.918L66.3247 223.917C58.5091 223.514 50.7044 222.2 43.4478 219.314L42.7476 219.03C36.303 216.28 29.7425 212.965 24.2778 208.739C19.276 204.816 15.0763 199.711 11.5894 194.288L11.5806 194.274L11.5708 194.261L11.1763 193.667C2.99135 181.194 1.79826 167.133 1.75537 152.217H1.75928V152.143C1.74906 150.329 1.70629 148.177 2.06396 146.232C2.41889 144.303 3.10564 142.941 4.24658 142.267C4.60462 142.132 5.06279 142.078 5.7085 142.077Z" fill="black" stroke="black" stroke-width="2.78351"/>
<path d="M216.509 95.4277C218.411 95.4282 220.052 95.6404 221.26 96.1553C222.387 96.6357 223.075 97.3442 223.343 98.4307C223.97 103.196 224.037 108.053 223.976 112.993C223.914 117.919 223.723 122.979 223.862 127.972V127.973L224.304 172.808V172.876C224.452 185.591 225.053 198.5 216.964 208.209L216.933 208.248C204.736 224.006 183.248 225.456 163.98 223.868C162.027 223.62 160.863 222.848 160.11 221.828C159.315 220.75 158.873 219.254 158.679 217.416C158.485 215.586 158.548 213.566 158.648 211.524C158.745 209.56 158.878 207.526 158.792 205.81C158.927 199.446 158.854 193.201 158.881 186.905C159.022 182.249 158.911 177.567 158.765 172.913C158.617 168.234 158.435 163.595 158.433 158.979C158.428 149.756 159.143 140.76 162.234 132.146C169.048 113.576 186.241 99.4916 205.852 96.4277C207.15 96.343 208.923 96.0859 210.729 95.8643C212.617 95.6326 214.627 95.4273 216.509 95.4277Z" fill="black" stroke="black" stroke-width="2.78351"/>
<path d="M132.946 1.57129C141.73 1.26736 150.913 1.34646 159.429 1.83496H159.437C167.499 2.25069 175.55 3.63562 183 6.71582V6.7168C189.449 9.46833 196.015 12.7844 201.483 17.0127C206.486 20.9364 210.686 26.0415 214.173 31.4648L214.19 31.4922C222.732 44.1116 223.961 58.3823 224.005 73.5352L224.003 73.5361V73.6104C224.013 75.4234 224.056 77.5764 223.698 79.5205C223.343 81.4501 222.655 82.8119 221.514 83.4863C221.156 83.621 220.698 83.6751 220.053 83.6758C219.49 83.6764 218.551 83.6238 217.781 83.6621C213.135 83.6621 208.675 83.6654 203.878 83.6621C177.054 83.5958 134.532 83.7543 123.49 83.6094C120.644 83.4117 116.715 82.6788 113.772 81.7061C104.903 78.6018 96.4516 73.0386 91.001 65.4922L90.4834 64.7559C84.6261 56.1487 82.1335 46.4133 83.9004 36.1855L83.9043 36.1621C85.1389 28.194 89.5636 21.3476 95.0996 15.3711L95.1006 15.3721C105.272 4.39837 118.028 1.88718 132.928 1.57129H132.946Z" fill="black" stroke="black" stroke-width="2.78351"/>
<path d="M484.432 133.23H380.974C381.153 154.692 398.456 174.965 420.215 176.523C439.756 177.922 456.167 168.624 465.368 151.546L479.937 158.727C465.573 183.73 438.463 197.004 409.795 190.163C371.599 181.049 354.811 136.444 371.141 102.063C383.661 75.7005 411.496 62.8784 439.973 69.825C467.823 76.6176 487.668 104.568 484.43 133.233L484.432 133.23ZM467.456 117.836C464.375 101.162 451.104 87.6182 434.474 84.3117C415.681 80.5721 397.464 87.9805 387.562 104.392C385.966 107.041 382.48 114.266 382.375 117.175C382.36 117.57 382.43 117.592 382.733 117.836H467.453H467.456Z" fill="black"/>
<path d="M675.335 105.646H659.8C659.084 104.199 659.256 102.291 658.843 100.511C653.262 76.5572 601.709 78.2601 605.272 104.44C607.052 117.525 632.997 119.148 643.307 121.839C658.688 125.854 673.276 132.887 675.614 150.427C679.997 183.317 646.156 195.388 619.173 190.905C598.908 187.541 583.542 172.505 584.048 151.187H599.423C599.366 163.769 607.834 172.531 619.6 175.405C633.312 178.756 659.098 175.568 660.274 157.435C661.634 136.476 631.115 135.476 616.713 131.787C603.267 128.343 590.881 121.486 589.531 106.085C586.458 70.9352 627.984 61.1887 654.085 73.1994C667.12 79.1968 675.018 91.2171 675.333 105.646H675.335Z" fill="black"/>
<path d="M501.247 151.191C502.032 151.434 501.643 153.541 501.731 154.234C504.482 176.155 531.585 180.664 548.894 173.884C567.729 166.511 567.037 145.338 547.608 138.442C527.985 131.48 493.426 133.558 491.462 105.181C488.954 68.8922 535.561 60.1784 560.633 75.6881C571.155 82.1954 577.643 93.4555 577.311 105.97C577.197 106.13 576.903 105.649 576.834 105.649H561.621C561.473 86.6661 540.433 81.7045 525.038 84.2542C514.072 86.0726 501.698 97.2722 509.142 108.962C514.575 117.493 537.496 119.671 547.274 122.416C566.479 127.804 580.566 138.105 577.915 160.289C574.811 186.238 545.651 194.083 523.389 191.232C502.297 188.531 485.988 173.201 486.349 151.187H501.242L501.247 151.191Z" fill="black"/>
<path d="M313.393 33.8086V69.7286H361.759V85.7642H313.393L313.381 151.363C313.899 162.53 317.096 172.78 329.087 175.725C340.27 178.47 351.824 174.756 361.759 169.791V186.789C356.55 188.582 351.363 190.471 345.858 191.234C319.681 194.862 298.986 182.312 298.022 154.554V85.7642H269.512V70.0494L298.019 69.7286V33.8086H313.393Z" fill="black"/>
</svg>
